<svg width="111" height="22" viewBox="0 0 111 22" fill="none" xmlns="http://www.w3.org/2000/svg">
<path d="M10.5638 0.669189C4.75552 0.669189 0.0296631 5.39511 0.0296631 11.2064C0.0296631 17.0144 4.75552 21.7403 10.5638 21.7403C12.1509 21.7403 13.6972 21.3879 15.1079 20.7097V21.7487H21.098V11.2064C21.098 5.39511 16.3721 0.669189 10.5638 0.669189ZM15.1109 11.6076C15.1109 11.6158 15.1079 11.6242 15.1079 11.632C14.8936 13.957 12.9024 15.7719 10.5638 15.7719C8.046 15.7719 5.99802 13.7239 5.99802 11.2064C5.99802 8.68613 8.046 6.6376 10.5638 6.6376C12.9349 6.6376 14.8909 8.45523 15.1079 10.7721C15.1215 10.9159 15.1296 11.0598 15.1296 11.2064C15.1296 11.3336 15.1239 11.4639 15.1109 11.6076Z" fill="black"/>
<path d="M76.0694 0.669189C70.2584 0.669189 65.5325 5.39511 65.5325 11.2064C65.5325 17.0144 70.2584 21.7403 76.0694 21.7403C81.8777 21.7403 86.6036 17.0144 86.6036 11.2064C86.6036 5.39511 81.8777 0.669189 76.0694 0.669189ZM76.0694 15.7719C73.5492 15.7719 71.5009 13.7239 71.5009 11.2064C71.5009 8.68854 73.5492 6.6376 76.0694 6.6376C78.587 6.6376 80.6352 8.68854 80.6352 11.2064C80.6352 13.7239 78.587 15.7719 76.0694 15.7719Z" fill="black"/>
<path d="M45.9476 11.2064V21.7487H40.0034V12.0202L39.9792 11.2064C39.9792 8.68613 37.931 6.6376 35.4132 6.6376C32.8956 6.6376 30.8474 8.68613 30.8474 11.2064V12.0202H30.8202V21.7487H24.879V11.2064C24.879 5.39511 29.6048 0.669189 35.4132 0.669189C41.2217 0.669189 45.9476 5.39511 45.9476 11.2064Z" fill="black"/>
<path d="M110.447 11.2064V21.7487H104.503V12.0202L104.478 11.2064C104.478 8.68613 102.43 6.6376 99.9122 6.6376C97.392 6.6376 95.344 8.68613 95.344 11.2064V12.0202H95.3196V21.7487H89.3756V11.2064C89.3756 5.39511 94.1015 0.669189 99.9122 0.669189C105.721 0.669189 110.447 5.39511 110.447 11.2064Z" fill="black"/>
<path d="M64.3266 3.64255C64.3266 5.28116 62.9943 6.61313 61.3557 6.61313H58.8462V21.7487H52.9023V6.61313H50.3685C48.7299 6.61313 47.3979 5.28116 47.3979 3.64255C47.3979 2.00394 48.7299 0.669189 50.3685 0.669189H61.3557C62.9943 0.669189 64.3266 2.00394 64.3266 3.64255Z" fill="black"/>
</svg>
