<svg width="137" height="26" viewBox="0 0 137 26" fill="none" xmlns="http://www.w3.org/2000/svg">
<path d="M13.4453 0C6.28116 0 0.452148 5.82904 0.452148 12.9968C0.452148 20.1606 6.28116 25.9896 13.4453 25.9896C15.4028 25.9896 17.3101 25.555 19.0501 24.7184V26H26.4384V12.9968C26.4384 5.82904 20.6094 0 13.4453 0ZM19.0538 13.4917C19.0538 13.5018 19.0501 13.5121 19.0501 13.5219C18.7858 16.3895 16.3297 18.6281 13.4453 18.6281C10.3397 18.6281 7.8137 16.1021 7.8137 12.9968C7.8137 9.88824 10.3397 7.36157 13.4453 7.36157C16.3698 7.36157 18.7824 9.60349 19.0501 12.4611C19.0668 12.6385 19.0769 12.8161 19.0769 12.9968C19.0769 13.1537 19.0698 13.3144 19.0538 13.4917Z" fill="white"/>
<path d="M94.2417 0C87.0742 0 81.2452 5.82904 81.2452 12.9968C81.2452 20.1606 87.0742 25.9896 94.2417 25.9896C101.406 25.9896 107.235 20.1606 107.235 12.9968C107.235 5.82904 101.406 0 94.2417 0ZM94.2417 18.6281C91.1331 18.6281 88.6068 16.1021 88.6068 12.9968C88.6068 9.89124 91.1331 7.36157 94.2417 7.36157C97.3469 7.36157 99.8733 9.89124 99.8733 12.9968C99.8733 16.1021 97.3469 18.6281 94.2417 18.6281Z" fill="white"/>
<path d="M57.0886 12.9968V26H49.7568V14.0007L49.7271 12.9968C49.7271 9.88824 47.2007 7.36157 44.0951 7.36157C40.9899 7.36157 38.4635 9.88824 38.4635 12.9968V14.0007H38.4301V26H31.102V12.9968C31.102 5.82904 36.931 0 44.0951 0C51.2596 0 57.0886 5.82904 57.0886 12.9968Z" fill="white"/>
<path d="M136.644 12.9968V26H129.312V14.0007L129.282 12.9968C129.282 9.88824 126.756 7.36157 123.65 7.36157C120.542 7.36157 118.016 9.88824 118.016 12.9968V14.0007H117.985V26H110.654V12.9968C110.654 5.82904 116.483 0 123.65 0C130.815 0 136.644 5.82904 136.644 12.9968Z" fill="white"/>
<path d="M79.7578 3.66739C79.7578 5.68848 78.1145 7.33142 76.0934 7.33142H72.9982V26H65.6668V7.33142H62.5415C60.5204 7.33142 58.8774 5.68848 58.8774 3.66739C58.8774 1.6463 60.5204 0 62.5415 0H76.0934C78.1145 0 79.7578 1.6463 79.7578 3.66739Z" fill="white"/>
</svg>
